<?xml version="1.0" encoding="utf-8"?>
<!-- Generator: Adobe Illustrator 15.1.0, SVG Export Plug-In . SVG Version: 6.00 Build 0)  -->
<!DOCTYPE svg PUBLIC "-//W3C//DTD SVG 1.1//EN" "http://www.w3.org/Graphics/SVG/1.1/DTD/svg11.dtd">
<svg version="1.1" id="Layer_1" xmlns="http://www.w3.org/2000/svg" xmlns:xlink="http://www.w3.org/1999/xlink" x="0px" y="0px"
	 width="190px" height="45px" viewBox="0 0 190 45" enable-background="new 0 0 190 45" xml:space="preserve">
<g>
	<path fill="#3D3D3D" d="M4.654,26.982H0.339V3.886h8.818c1.913,0,3.331,0.686,4.255,2.054c0.761,1.127,1.142,2.62,1.142,4.482
		c0,1.106-0.154,2.1-0.461,2.977c-0.37,1.064-0.938,1.896-1.696,2.486c-0.618,0.495-1.358,0.844-2.221,1.06
		c-0.865,0.216-1.738,0.324-2.621,0.324h-2.9V26.982z M4.654,7.278v6.599h2.314c1.027,0,1.788-0.246,2.283-0.736
		c0.574-0.57,0.863-1.514,0.863-2.84c0-1.264-0.248-2.083-0.74-2.458c-0.493-0.378-1.41-0.565-2.744-0.565H4.654z"/>
	<path fill="#3D3D3D" d="M23.157,27.477c-2.509,0-4.183-0.669-5.027-2.008c-0.74-1.177-1.11-3.359-1.11-6.548
		c0-2.453,0.083-4.183,0.248-5.189c0.248-1.567,0.782-2.699,1.603-3.401c0.925-0.802,2.353-1.201,4.287-1.201
		c1.892,0,3.289,0.399,4.193,1.201c0.803,0.703,1.327,1.834,1.574,3.401c0.165,1.027,0.248,2.756,0.248,5.189
		c0,3.23-0.352,5.414-1.05,6.548C27.3,26.808,25.645,27.477,23.157,27.477z M21.03,15.519v5.813c0,0.969,0.04,1.597,0.123,1.883
		c0.227,0.786,0.894,1.177,2.004,1.177c0.863,0,1.428-0.236,1.696-0.711c0.206-0.37,0.308-1.155,0.308-2.349v-5.813
		c0-1.38-0.154-2.278-0.461-2.69c-0.31-0.412-0.823-0.62-1.542-0.62c-0.946,0-1.563,0.341-1.851,1.023
		C21.122,13.665,21.03,14.426,21.03,15.519z"/>
	<path fill="#3D3D3D" d="M32.439,12.871c0-2.428,0.38-4.353,1.141-5.771c0.884-1.646,2.293-2.636,4.225-2.964
		c1.11-0.187,1.943-0.403,2.499-0.648c0.699-0.312,1.048-0.649,1.048-1.019h2.898c0,1.355-0.405,2.387-1.216,3.098
		c-0.813,0.711-2.052,1.248-3.717,1.617c-1.254,0.271-2.235,0.757-2.946,1.468c-0.709,0.707-1.063,1.659-1.063,2.853
		c0.514-0.761,1.069-1.327,1.665-1.696c0.72-0.454,1.562-0.678,2.528-0.678c2.158,0,3.588,0.823,4.287,2.47
		c0.534,1.255,0.802,3.696,0.802,7.322c0,3.23-0.351,5.414-1.05,6.548c-0.821,1.339-2.476,2.008-4.964,2.008
		c-2.509,0-4.183-0.669-5.027-2.008c-0.74-1.173-1.11-3.355-1.11-6.544V12.871z M36.449,15.519v5.813
		c0,0.969,0.039,1.597,0.123,1.883c0.227,0.786,0.894,1.177,2.004,1.177c0.863,0,1.428-0.236,1.696-0.711
		c0.206-0.37,0.308-1.155,0.308-2.349v-5.813c0-1.38-0.154-2.278-0.461-2.69c-0.31-0.412-0.823-0.62-1.542-0.62
		c-0.946,0-1.563,0.341-1.85,1.023C36.541,13.665,36.449,14.426,36.449,15.519z"/>
	<path fill="#3D3D3D" d="M53.995,27.477c-2.509,0-4.183-0.669-5.026-2.008c-0.74-1.177-1.11-3.359-1.11-6.548
		c0-2.453,0.083-4.183,0.248-5.189c0.247-1.567,0.782-2.699,1.603-3.401c0.925-0.802,2.354-1.201,4.287-1.201
		c1.892,0,3.289,0.399,4.193,1.201c0.802,0.703,1.326,1.834,1.574,3.401c0.164,1.027,0.248,2.756,0.248,5.189
		c0,3.23-0.352,5.414-1.05,6.548C58.138,26.808,56.483,27.477,53.995,27.477z M51.868,15.519v5.813c0,0.969,0.04,1.597,0.123,1.883
		c0.227,0.786,0.894,1.177,2.004,1.177c0.863,0,1.428-0.236,1.697-0.711c0.206-0.37,0.308-1.155,0.308-2.349v-5.813
		c0-1.38-0.154-2.278-0.461-2.69c-0.31-0.412-0.823-0.62-1.543-0.62c-0.946,0-1.563,0.341-1.85,1.023
		C51.959,13.665,51.868,14.426,51.868,15.519z"/>
	<path fill="#3D3D3D" d="M61.643,9.59h11.471v3.085h-3.731v14.307h-4.008V12.675h-3.731V9.59z"/>
</g>
<g>
	<path fill="#3D3D3D" d="M0.301,32.633h1.865l1.248,3.376c0.075,0.191,0.143,0.428,0.208,0.724c0.063,0.287,0.112,0.545,0.146,0.761
		c0.104-0.541,0.168-0.856,0.193-0.952c0.073-0.341,0.162-0.687,0.266-1.044l0.823-2.864h1.784L4.59,39.556
		c-0.274,0.852-0.526,1.43-0.75,1.721C3.5,41.709,3.014,41.93,2.384,41.93c-0.227,0-0.385-0.005-0.474-0.013
		C1.8,41.892,1.717,41.88,1.669,41.88v-1.468c0.064,0.021,0.15,0.033,0.256,0.041c0.104,0.005,0.202,0.013,0.291,0.013
		c0.314,0,0.542-0.195,0.69-0.569l0.206-0.558L0.301,32.633z"/>
	<path fill="#3D3D3D" d="M6.977,41.709v-6.835H9.43l0.869,3.903c0.042,0.175,0.077,0.379,0.106,0.6
		c0.027,0.22,0.054,0.465,0.079,0.731c0.066-0.44,0.135-0.886,0.208-1.331l0.915-3.903h2.411v6.835h-1.599l0.071-4.315l0.073-1.709
		l-1.393,6.024H9.812l-1.345-6.024l0.025,1.709l0.085,4.315H6.977z"/>
	<path fill="#3D3D3D" d="M20.078,41.709h-1.576v-2.943h-1.428v2.943h-1.576v-6.835h1.576v2.678h1.428v-2.678h1.576V41.709z"/>
	<path fill="#3D3D3D" d="M21.556,34.874h1.576v2.644h0.399c0.89,0,1.526,0.129,1.915,0.392c0.484,0.319,0.728,0.902,0.728,1.733
		c0,0.794-0.222,1.348-0.667,1.667c-0.21,0.146-0.482,0.25-0.817,0.308c-0.335,0.063-0.682,0.092-1.038,0.092h-2.096V34.874z
		 M23.288,40.545c0.463,0,0.782-0.042,0.95-0.133c0.239-0.134,0.359-0.399,0.359-0.807c0-0.37-0.116-0.624-0.349-0.757
		c-0.177-0.096-0.461-0.146-0.854-0.146h-0.262v1.842H23.288z M28.366,41.709h-1.576v-6.835h1.576V41.709z"/>
	<path fill="#3D3D3D" d="M34.451,41.709h-1.516l0.108-3.272l0.098-1.297l-1.674,4.569h-1.646v-6.835h1.526l-0.121,3.26l-0.09,1.31
		l1.646-4.569h1.667V41.709z M33.42,32.259h0.788c-0.073,0.565-0.287,1.002-0.636,1.301c-0.354,0.304-0.817,0.453-1.401,0.453
		c-0.628,0-1.127-0.162-1.491-0.486c-0.364-0.328-0.542-0.752-0.542-1.268h0.786c0.033,0.282,0.154,0.494,0.364,0.636
		s0.486,0.212,0.825,0.212c0.418,0,0.732-0.066,0.938-0.199C33.256,32.774,33.378,32.558,33.42,32.259z"/>
	<path fill="#3D3D3D" d="M43.513,41.709h-1.576v-5.621h-1.428v5.621h-1.576v-6.835h4.58V41.709z"/>
	<path fill="#3D3D3D" d="M47.307,41.904c-0.985,0-1.645-0.262-1.975-0.785c-0.291-0.466-0.437-1.322-0.437-2.578
		c0-0.965,0.033-1.643,0.098-2.037c0.096-0.616,0.308-1.061,0.63-1.335c0.364-0.32,0.925-0.474,1.684-0.474
		c0.744,0,1.293,0.153,1.648,0.474c0.316,0.274,0.522,0.719,0.62,1.335c0.063,0.403,0.096,1.081,0.096,2.037
		c0,1.272-0.137,2.129-0.412,2.578C48.935,41.643,48.284,41.904,47.307,41.904z M46.471,37.206v2.283
		c0,0.382,0.015,0.627,0.048,0.739c0.089,0.313,0.352,0.466,0.788,0.466c0.339,0,0.561-0.096,0.667-0.282
		c0.081-0.146,0.12-0.453,0.12-0.923v-2.283c0-0.545-0.06-0.894-0.181-1.061c-0.123-0.157-0.324-0.24-0.607-0.24
		c-0.372,0-0.613,0.133-0.728,0.398C46.507,36.475,46.471,36.773,46.471,37.206z"/>
	<path fill="#3D3D3D" d="M55.656,41.709H54.14l0.11-3.272l0.098-1.297l-1.673,4.569h-1.646v-6.835h1.526l-0.121,3.26l-0.089,1.31
		l1.646-4.569h1.665V41.709z"/>
	<path fill="#3D3D3D" d="M61.244,37.252h-1.576v-0.765c0-0.387-0.181-0.582-0.544-0.582c-0.268,0-0.443,0.149-0.522,0.448
		c-0.048,0.188-0.073,0.545-0.073,1.081v1.617c0,0.674,0.036,1.106,0.108,1.298c0.073,0.195,0.235,0.312,0.486,0.345
		c0.216,0,0.364-0.1,0.435-0.295c0.042-0.104,0.077-0.341,0.11-0.715v-0.624h1.576v0.624c0,0.748-0.168,1.301-0.503,1.667
		c-0.336,0.366-0.888,0.553-1.655,0.553c-0.711,0-1.243-0.203-1.599-0.611c-0.355-0.411-0.534-1.06-0.534-1.949v-2.221
		c0-0.894,0.206-1.534,0.617-1.934c0.347-0.328,0.854-0.494,1.516-0.494c0.744,0,1.301,0.203,1.674,0.615
		c0.322,0.354,0.484,0.823,0.484,1.393V37.252z"/>
	<path fill="#3D3D3D" d="M63.884,41.709h-1.551v-6.835h1.551v1.858l0.006,0.86l1.514-2.715l1.717-0.004l-1.722,2.752l1.674,4.083
		H65.3l-0.987-2.785l-0.428,0.702V41.709z"/>
	<path fill="#3D3D3D" d="M74.985,34.874v1.85l-0.012,0.861l1.509-2.711h1.715l-1.721,2.752l1.671,4.083h-1.757l-0.981-2.785
		l-0.424,0.702v2.083H73.41v-2.083l-0.424-0.702l-0.981,2.785h-1.759l1.673-4.083l-1.721-2.752l1.717,0.004l1.484,2.719l0.01-0.864
		v-1.858H74.985z"/>
	<path fill="#3D3D3D" d="M83.59,41.709h-1.518l0.112-3.272l0.096-1.297l-1.673,4.569H78.96v-6.835h1.526l-0.121,3.26l-0.089,1.31
		l1.646-4.569h1.667V41.709z"/>
	<path fill="#3D3D3D" d="M85.407,34.874h4.218v6.835h-1.576v-5.621h-1.175v2.748c0,1.027-0.11,1.738-0.329,2.133
		c-0.331,0.599-0.985,0.902-1.962,0.902v-1.372c0.378,0,0.618-0.137,0.715-0.403c0.073-0.199,0.108-0.665,0.108-1.393V34.874z"/>
	<path fill="#3D3D3D" d="M91.103,34.874h1.574v2.644h0.401c0.888,0,1.526,0.129,1.915,0.392c0.484,0.319,0.726,0.902,0.726,1.733
		c0,0.794-0.22,1.348-0.666,1.667c-0.212,0.146-0.482,0.25-0.819,0.308c-0.335,0.063-0.68,0.092-1.035,0.092h-2.096V34.874z
		 M92.835,40.545c0.463,0,0.779-0.042,0.95-0.133c0.239-0.134,0.36-0.399,0.36-0.807c0-0.37-0.117-0.624-0.349-0.757
		c-0.177-0.096-0.459-0.146-0.854-0.146h-0.264v1.842H92.835z"/>
	<path fill="#3D3D3D" d="M101.088,41.709h-1.576v-2.785h-0.387c-0.38,0-0.627,0.17-0.737,0.507c-0.05,0.146-0.083,0.341-0.104,0.578
		c-0.021,0.236-0.031,0.511-0.031,0.814c0,0.146-0.006,0.267-0.019,0.362c-0.01,0.091-0.037,0.203-0.077,0.341l-0.047,0.183H96.41
		v-0.087c0.064-0.038,0.123-0.129,0.169-0.271c0.052-0.142,0.089-0.42,0.116-0.84c0.029-0.42,0.042-0.79,0.042-1.106
		c0-0.174,0.03-0.332,0.091-0.474c0.061-0.133,0.158-0.258,0.291-0.374c0.133-0.112,0.31-0.195,0.528-0.241
		c-0.348-0.129-0.597-0.328-0.746-0.599c-0.15-0.271-0.223-0.595-0.223-0.978c0-0.661,0.179-1.139,0.536-1.43
		c0.359-0.291,0.908-0.437,1.645-0.437h2.229V41.709z M99.512,37.775v-1.737H99.14c-0.271,0-0.49,0.066-0.658,0.199
		c-0.169,0.133-0.254,0.357-0.254,0.674c0,0.291,0.085,0.516,0.254,0.665c0.143,0.129,0.324,0.199,0.54,0.199H99.512z"/>
	<path fill="#3D3D3D" d="M105.475,36.167c0-0.956,0.149-1.709,0.449-2.271c0.347-0.648,0.899-1.035,1.658-1.164
		c0.437-0.075,0.764-0.158,0.981-0.254c0.274-0.124,0.412-0.258,0.412-0.403h1.139c0,0.532-0.158,0.936-0.478,1.219
		c-0.32,0.278-0.805,0.49-1.46,0.636c-0.492,0.104-0.879,0.3-1.158,0.578c-0.278,0.278-0.417,0.652-0.417,1.118
		c0.201-0.295,0.42-0.523,0.654-0.665c0.283-0.179,0.615-0.266,0.994-0.266c0.848,0,1.409,0.319,1.684,0.969
		c0.21,0.494,0.316,1.45,0.316,2.877c0,1.272-0.14,2.129-0.414,2.578c-0.322,0.523-0.973,0.785-1.95,0.785
		c-0.985,0-1.645-0.262-1.975-0.785c-0.291-0.466-0.437-1.318-0.437-2.574V36.167z M107.05,37.206v2.283
		c0,0.382,0.015,0.627,0.048,0.739c0.09,0.313,0.352,0.466,0.788,0.466c0.339,0,0.562-0.096,0.668-0.282
		c0.078-0.146,0.12-0.453,0.12-0.923v-2.283c0-0.545-0.061-0.894-0.181-1.061c-0.123-0.157-0.324-0.24-0.607-0.24
		c-0.372,0-0.613,0.133-0.728,0.398C107.086,36.475,107.05,36.773,107.05,37.206z"/>
	<path fill="#3D3D3D" d="M111.521,39.027v-1.796c0-0.819,0.191-1.447,0.578-1.884s0.956-0.652,1.713-0.652
		c1.013,0,1.688,0.266,2.025,0.798c0.258,0.407,0.387,1.14,0.387,2.204v0.923h-3.127v0.998c0,0.424,0.077,0.715,0.229,0.881
		c0.123,0.129,0.32,0.195,0.595,0.195c0.283,0,0.474-0.104,0.576-0.299c0.1-0.204,0.149-0.532,0.149-1.002h1.578
		c0,0.807-0.162,1.413-0.484,1.829c-0.357,0.453-0.921,0.682-1.698,0.682c-0.905,0-1.552-0.225-1.938-0.674
		C111.715,40.782,111.521,40.046,111.521,39.027z M113.098,37.405h1.549v-0.59c0-0.345-0.054-0.586-0.164-0.715
		c-0.112-0.129-0.326-0.195-0.645-0.195c-0.343,0-0.562,0.128-0.657,0.374c-0.056,0.149-0.083,0.432-0.083,0.852V37.405z"/>
	<path fill="#3D3D3D" d="M119.12,38.79v-1.201h0.424c0.322,0,0.558-0.066,0.703-0.204c0.146-0.137,0.218-0.374,0.218-0.702
		c0-0.528-0.234-0.79-0.702-0.79c-0.274,0-0.464,0.104-0.563,0.304c-0.102,0.199-0.151,0.448-0.151,0.739h-1.516l0.012-0.536
		c0-0.482,0.208-0.89,0.624-1.214c0.416-0.328,0.952-0.49,1.607-0.49c0.678,0,1.218,0.162,1.623,0.49
		c0.403,0.324,0.605,0.79,0.605,1.385c0,0.349-0.073,0.648-0.219,0.897c-0.17,0.291-0.437,0.508-0.8,0.641
		c0.389,0.142,0.682,0.366,0.879,0.687c0.197,0.315,0.298,0.66,0.298,1.043c0,0.715-0.248,1.247-0.74,1.605
		c-0.418,0.308-0.965,0.461-1.637,0.461c-0.613,0-1.126-0.137-1.538-0.416c-0.484-0.319-0.755-0.802-0.811-1.45V39.48h1.538
		c0,0.361,0.044,0.636,0.133,0.823c0.131,0.267,0.36,0.399,0.685,0.399c0.278,0,0.484-0.088,0.623-0.267
		c0.112-0.149,0.171-0.354,0.171-0.623c0-0.316-0.087-0.565-0.264-0.749c-0.173-0.183-0.429-0.274-0.764-0.274H119.12z"/>
	<path fill="#3D3D3D" d="M131.13,41.709h-1.578v-5.621h-1.428v5.621h-1.576v-6.835h4.582V41.709z"/>
	<path fill="#3D3D3D" d="M134.922,41.904c-0.985,0-1.645-0.262-1.975-0.785c-0.291-0.466-0.437-1.322-0.437-2.578
		c0-0.965,0.033-1.643,0.098-2.037c0.098-0.616,0.308-1.061,0.63-1.335c0.363-0.32,0.925-0.474,1.684-0.474
		c0.744,0,1.293,0.153,1.648,0.474c0.316,0.274,0.521,0.719,0.62,1.335c0.064,0.403,0.095,1.081,0.095,2.037
		c0,1.272-0.137,2.129-0.411,2.578C136.552,41.643,135.899,41.904,134.922,41.904z M134.086,37.206v2.283
		c0,0.382,0.015,0.627,0.048,0.739c0.092,0.313,0.352,0.466,0.788,0.466c0.341,0,0.562-0.096,0.667-0.282
		c0.081-0.146,0.121-0.453,0.121-0.923v-2.283c0-0.545-0.061-0.894-0.181-1.061c-0.123-0.157-0.322-0.24-0.607-0.24
		c-0.37,0-0.613,0.133-0.726,0.398C134.121,36.475,134.086,36.773,134.086,37.206z"/>
	<path fill="#3D3D3D" d="M142.799,37.252h-1.576v-0.765c0-0.387-0.181-0.582-0.544-0.582c-0.269,0-0.441,0.149-0.522,0.448
		c-0.048,0.188-0.072,0.545-0.072,1.081v1.617c0,0.674,0.037,1.106,0.11,1.298c0.072,0.195,0.232,0.312,0.484,0.345
		c0.218,0,0.363-0.1,0.437-0.295c0.039-0.104,0.076-0.341,0.107-0.715v-0.624h1.576v0.624c0,0.748-0.168,1.301-0.503,1.667
		s-0.888,0.553-1.655,0.553c-0.709,0-1.243-0.203-1.599-0.611c-0.355-0.411-0.532-1.06-0.532-1.949v-2.221
		c0-0.894,0.204-1.534,0.618-1.934c0.347-0.328,0.852-0.494,1.513-0.494c0.744,0,1.302,0.203,1.674,0.615
		c0.322,0.354,0.484,0.823,0.484,1.393V37.252z"/>
	<path fill="#3D3D3D" d="M145.587,34.874v0.715c0.153-0.312,0.341-0.545,0.563-0.682c0.222-0.142,0.498-0.212,0.829-0.212
		c0.543,0,0.941,0.166,1.201,0.507c0.291,0.387,0.435,1.035,0.435,1.938v2.474c0,0.653-0.104,1.173-0.313,1.556
		c-0.267,0.478-0.707,0.723-1.322,0.723c-0.322,0-0.597-0.066-0.823-0.19c-0.227-0.134-0.433-0.362-0.619-0.694L145.514,44h-1.503
		v-9.126H145.587z M145.587,37.418v2.05c0,0.807,0.256,1.21,0.763,1.21c0.227,0,0.399-0.107,0.516-0.328
		c0.116-0.212,0.177-0.499,0.177-0.849v-2.274c0-0.47-0.025-0.772-0.073-0.91c-0.098-0.274-0.312-0.411-0.642-0.411
		c-0.325,0-0.539,0.183-0.645,0.544C145.618,36.67,145.587,36.99,145.587,37.418z"/>
	<path fill="#3D3D3D" d="M149.998,39.027v-1.796c0-0.819,0.191-1.447,0.578-1.884c0.385-0.437,0.956-0.652,1.711-0.652
		c1.015,0,1.689,0.266,2.026,0.798c0.256,0.407,0.385,1.14,0.385,2.204v0.923h-3.127v0.998c0,0.424,0.079,0.715,0.231,0.881
		c0.12,0.129,0.32,0.195,0.595,0.195c0.282,0,0.474-0.104,0.575-0.299c0.1-0.204,0.149-0.532,0.149-1.002h1.576
		c0,0.807-0.162,1.413-0.484,1.829c-0.355,0.453-0.921,0.682-1.696,0.682c-0.906,0-1.551-0.225-1.939-0.674
		C150.191,40.782,149.998,40.046,149.998,39.027z M151.571,37.405h1.551v-0.59c0-0.345-0.054-0.586-0.166-0.715
		c-0.11-0.129-0.324-0.195-0.645-0.195c-0.341,0-0.561,0.128-0.654,0.374c-0.059,0.149-0.086,0.432-0.086,0.852V37.405z"/>
	<path fill="#3D3D3D" d="M156.287,34.874h4.242v5.625h0.423v2.52h-1.456v-1.31h-2.617v1.31h-1.453v-2.52h0.121
		c0.322-0.033,0.534-0.225,0.63-0.569c0.072-0.262,0.11-0.74,0.11-1.443V34.874z M158.952,36.088h-1.212v2.52
		c0,0.453-0.02,0.823-0.061,1.114c-0.04,0.291-0.142,0.549-0.304,0.777h1.576V36.088z"/>
	<path fill="#3D3D3D" d="M166.588,41.709h-1.576v-2.943h-1.428v2.943h-1.576v-6.835h1.576v2.678h1.428v-2.678h1.576V41.709z"/>
	<path fill="#3D3D3D" d="M172.67,41.709h-1.515l0.109-3.272l0.096-1.297l-1.671,4.569h-1.648v-6.835h1.527l-0.12,3.26l-0.092,1.31
		l1.646-4.569h1.667V41.709z"/>
	<path fill="#3D3D3D" d="M175.519,41.709h-1.551v-6.835h1.551v1.858l0.006,0.86l1.514-2.715l1.717-0.004l-1.721,2.752l1.673,4.083
		h-1.772l-0.988-2.785l-0.428,0.702V41.709z"/>
	<path fill="#3D3D3D" d="M181.602,41.904c-0.985,0-1.645-0.262-1.976-0.785c-0.291-0.466-0.437-1.322-0.437-2.578
		c0-0.965,0.031-1.643,0.098-2.037c0.098-0.616,0.306-1.061,0.628-1.335c0.366-0.32,0.928-0.474,1.687-0.474
		c0.744,0,1.293,0.153,1.648,0.474c0.313,0.274,0.521,0.719,0.617,1.335c0.066,0.403,0.098,1.081,0.098,2.037
		c0,1.272-0.14,2.129-0.413,2.578C183.229,41.643,182.578,41.904,181.602,41.904z M180.766,37.206v2.283
		c0,0.382,0.015,0.627,0.048,0.739c0.089,0.313,0.352,0.466,0.788,0.466c0.341,0,0.561-0.096,0.667-0.282
		c0.081-0.146,0.121-0.453,0.121-0.923v-2.283c0-0.545-0.061-0.894-0.182-1.061c-0.122-0.157-0.324-0.24-0.606-0.24
		c-0.372,0-0.613,0.133-0.728,0.398C180.801,36.475,180.766,36.773,180.766,37.206z"/>
	<path fill="#3D3D3D" d="M185.348,41.709v-6.835h2.229c0.702,0,1.247,0.133,1.636,0.403c0.437,0.295,0.655,0.744,0.655,1.343
		c0,0.349-0.09,0.661-0.267,0.939c-0.179,0.278-0.415,0.457-0.715,0.536c0.324,0.083,0.588,0.279,0.798,0.582
		c0.213,0.308,0.316,0.666,0.316,1.069c0,0.706-0.219,1.209-0.655,1.529c-0.403,0.287-0.995,0.433-1.779,0.433H185.348z
		 M186.923,36.038v1.551h0.302c0.405,0,0.672-0.042,0.801-0.121c0.179-0.112,0.266-0.357,0.266-0.728
		c0-0.295-0.085-0.49-0.254-0.573c-0.17-0.083-0.444-0.129-0.823-0.129H186.923z M186.923,38.74v1.805h0.337
		c0.425,0,0.716-0.054,0.878-0.166c0.19-0.142,0.286-0.396,0.286-0.766c0-0.387-0.104-0.64-0.313-0.752
		c-0.142-0.079-0.438-0.121-0.888-0.121H186.923z"/>
</g>
<g>
	<path fill="#3D77E3" d="M88.899,13.199v-0.59v-0.773c0-1.468-0.146-2.561-0.433-3.285c-0.472-1.197-1.368-1.796-2.682-1.796
		c-0.823,0-1.465,0.375-1.929,1.123c-0.461,0.752-0.692,1.559-0.692,2.419h-4.318l0.094-1.047c0-1.913,0.636-3.385,1.911-4.424
		c1.274-1.039,2.918-1.559,4.935-1.559c3.146,0,5.262,0.981,6.351,2.936c0.802,1.422,1.204,3.871,1.204,7.347v3.306
		c0,2.47-0.123,4.303-0.37,5.497c-0.349,1.729-1.029,2.993-2.035,3.796c-1.152,0.927-2.869,1.393-5.149,1.393
		c-2.366,0-4.143-0.711-5.336-2.129c-1.11-1.339-1.665-3.218-1.665-5.646h4.38c0,1.073,0.193,1.996,0.58,2.778
		c0.486,1.006,1.179,1.509,2.075,1.509c1.281,0,2.156-0.595,2.624-1.788c0.304-0.76,0.458-1.837,0.458-3.238v-2.433h-5.243v-3.393
		H88.899z"/>
	<path fill="#3D77E3" d="M95.005,7.278V3.886h14.4v3.393h-5.024v19.704h-4.317V7.278H95.005z"/>
	<path fill="#3D77E3" d="M112.521,26.982h-4.625l5.52-23.097h5.827l5.243,23.097h-4.626l-1.142-5.858h-5.058L112.521,26.982z
		 M115.636,11.179l-1.295,6.552h3.7l-1.172-6.552c-0.084-0.408-0.15-0.803-0.2-1.181c-0.052-0.378-0.129-1.052-0.232-2.017
		l-0.154-1.538l-0.216,1.538c-0.081,0.72-0.147,1.31-0.199,1.767C115.814,10.214,115.738,10.688,115.636,11.179z"/>
	<path fill="#3D77E3" d="M139.259,3.886v10.236c0.37-0.881,0.802-1.813,1.295-2.798c0.164-0.329,0.657-1.239,1.48-2.736l2.527-4.703
		h4.873l-5.704,9.917l5.98,13.18h-4.871l-4.07-9.126l-1.511,2.495v6.632h-4.318v-6.632l-1.511-2.495l-4.071,9.126h-4.87l5.98-13.18
		l-5.704-9.917h4.873l2.527,4.703c0.761,1.393,1.357,2.532,1.788,3.414c0.37,0.777,0.68,1.484,0.925,2.12l0.063-10.236H139.259z"/>
	<path fill="#3D77E3" d="M158.809,19.12h-7.339v-3.546h7.339V19.12z"/>
	<path fill="#3D77E3" d="M166.826,26.982V10.946h-5.211V7.865c1.665,0,2.991-0.266,3.977-0.798c1.173-0.632,1.963-1.692,2.374-3.181
		h3.177v23.097H166.826z"/>
	<path fill="#3D77E3" d="M176.972,18.675v-5.559c0-3.559,0.545-6.042,1.634-7.438c0.987-1.276,2.674-1.917,5.058-1.917
		c1.809,0,3.188,0.403,4.133,1.201c1.048,0.886,1.572,2.22,1.572,4.013h-4.008c0-0.558-0.081-0.957-0.244-1.206
		c-0.264-0.412-0.789-0.615-1.579-0.615c-0.932,0-1.57,0.432-1.915,1.293c-0.223,0.557-0.333,1.368-0.333,2.437v0.586v1.48
		c0.51-0.532,0.909-0.881,1.193-1.048c0.572-0.329,1.298-0.495,2.175-0.495c1.796,0,3.105,0.603,3.934,1.809
		c0.827,1.206,1.241,3.022,1.241,5.455c0,3.068-0.433,5.264-1.296,6.582c-0.967,1.479-2.663,2.224-5.089,2.224
		s-4.144-0.781-5.149-2.349C177.414,23.752,176.972,21.598,176.972,18.675z M181.289,18.979c0,2.27,0.144,3.688,0.431,4.253
		c0.289,0.57,0.792,0.853,1.512,0.853h0.278c0.842,0,1.407-0.341,1.696-1.022c0.204-0.495,0.308-1.401,0.308-2.724v-1.359v-0.744
		c0-1.052-0.104-1.825-0.308-2.32c-0.31-0.74-0.906-1.114-1.79-1.114c-0.74,0-1.278,0.274-1.619,0.823
		C181.458,16.168,181.289,17.286,181.289,18.979z"/>
</g>
</svg>
